# Tiled2Unity generated file. Do not modify by hand.
# Wavefront file for 'Map_Entrance_mesh_0003.obj'

# Vertices (Count = 96)
v 0 -624 0
v -48 -624 0
v -48 -576 0
v 0 -576 0
v -48 -624 0
v -96 -624 0
v -96 -576 0
v -48 -576 0
v -144 -624 0
v -192 -624 0
v -192 -576 0
v -144 -576 0
v -192 -624 0
v -240 -624 0
v -240 -576 0
v -192 -576 0
v -288 -624 0
v -336 -624 0
v -336 -576 0
v -288 -576 0
v -336 -624 0
v -384 -624 0
v -384 -576 0
v -336 -576 0
v -480 -624 0
v -528 -624 0
v -528 -576 0
v -480 -576 0
v -528 -624 0
v -576 -624 0
v -576 -576 0
v -528 -576 0
v -576 -624 0
v -624 -624 0
v -624 -576 0
v -576 -576 0
v -624 -624 0
v -672 -624 0
v -672 -576 0
v -624 -576 0
v -768 -624 0
v -816 -624 0
v -816 -576 0
v -768 -576 0
v -816 -624 0
v -864 -624 0
v -864 -576 0
v -816 -576 0
v 0 -672 0
v -48 -672 0
v -48 -624 0
v 0 -624 0
v -48 -672 0
v -96 -672 0
v -96 -624 0
v -48 -624 0
v -96 -672 0
v -144 -672 0
v -144 -624 0
v -96 -624 0
v -144 -672 0
v -192 -672 0
v -192 -624 0
v -144 -624 0
v -192 -672 0
v -240 -672 0
v -240 -624 0
v -192 -624 0
v -240 -672 0
v -288 -672 0
v -288 -624 0
v -240 -624 0
v -288 -672 0
v -336 -672 0
v -336 -624 0
v -288 -624 0
v -528 -672 0
v -576 -672 0
v -576 -624 0
v -528 -624 0
v -576 -672 0
v -624 -672 0
v -624 -624 0
v -576 -624 0
v -624 -672 0
v -672 -672 0
v -672 -624 0
v -624 -624 0
v -672 -672 0
v -720 -672 0
v -720 -624 0
v -672 -624 0
v -720 -672 0
v -768 -672 0
v -768 -624 0
v -720 -624 0

# Texture cooridinates (Count = 26)
vt 0.4375 0.3125
vt 0.5 0.3125
vt 0.5 0.375
vt 0.4375 0.375
vt 0.4375 0.0625
vt 0.5 0.0625
vt 0.5 0.125
vt 0.4375 0.125
vt 0.375 0.6875
vt 0.4375 0.6875
vt 0.4375 0.75
vt 0.375 0.75
vt 0.375 0.25
vt 0.4375 0.25
vt 0.375 0.3125
vt 0.5 0.6875
vt 0.5 0.75
vt 0.375 0
vt 0.4375 0
vt 0.375 0.0625
vt 0.5 0
vt 0.375 0.375
vt 0.4375 0.4375
vt 0.375 0.4375
vt 0.4375 0.5
vt 0.375 0.5

# Normal
vn 0 0 -1

# Mesh description
g Map_Entrance_mesh_0003

# Faces
f 1/1/1 2/2/1 3/3/1 4/4/1
f 5/1/1 6/2/1 7/3/1 8/4/1
f 9/5/1 10/6/1 11/7/1 12/8/1
f 13/5/1 14/6/1 15/7/1 16/8/1
f 17/9/1 18/10/1 19/11/1 20/12/1
f 21/13/1 22/14/1 23/1/1 24/15/1
f 25/1/1 26/2/1 27/3/1 28/4/1
f 29/9/1 30/10/1 31/11/1 32/12/1
f 33/10/1 34/16/1 35/17/1 36/11/1
f 37/9/1 38/10/1 39/11/1 40/12/1
f 41/18/1 42/19/1 43/5/1 44/20/1
f 45/19/1 46/21/1 47/6/1 48/5/1
f 49/22/1 50/4/1 51/23/1 52/24/1
f 53/9/1 54/10/1 55/11/1 56/12/1
f 57/10/1 58/16/1 59/17/1 60/11/1
f 61/9/1 62/10/1 63/11/1 64/12/1
f 65/9/1 66/10/1 67/11/1 68/12/1
f 69/10/1 70/16/1 71/17/1 72/11/1
f 73/10/1 74/16/1 75/17/1 76/11/1
f 77/10/1 78/16/1 79/17/1 80/11/1
f 81/24/1 82/23/1 83/25/1 84/26/1
f 85/9/1 86/10/1 87/11/1 88/12/1
f 89/9/1 90/10/1 91/11/1 92/12/1
f 93/1/1 94/2/1 95/3/1 96/4/1

