# Tiled2Unity generated file. Do not modify by hand.
# Wavefront file for 'Map_Entrance_mesh_0004.obj'

# Vertices (Count = 76)
v 0 -576 0
v -48 -576 0
v -48 -528 0
v 0 -528 0
v -48 -576 0
v -96 -576 0
v -96 -528 0
v -48 -528 0
v -288 -576 0
v -336 -576 0
v -336 -528 0
v -288 -528 0
v -528 -576 0
v -576 -576 0
v -576 -528 0
v -528 -528 0
v -576 -576 0
v -624 -576 0
v -624 -528 0
v -576 -528 0
v -624 -576 0
v -672 -576 0
v -672 -528 0
v -624 -528 0
v -768 -576 0
v -816 -576 0
v -816 -528 0
v -768 -528 0
v 0 -624 0
v -48 -624 0
v -48 -576 0
v 0 -576 0
v -48 -624 0
v -96 -624 0
v -96 -576 0
v -48 -576 0
v -96 -624 0
v -144 -624 0
v -144 -576 0
v -96 -576 0
v -144 -624 0
v -192 -624 0
v -192 -576 0
v -144 -576 0
v -192 -624 0
v -240 -624 0
v -240 -576 0
v -192 -576 0
v -240 -624 0
v -288 -624 0
v -288 -576 0
v -240 -576 0
v -288 -624 0
v -336 -624 0
v -336 -576 0
v -288 -576 0
v -528 -624 0
v -576 -624 0
v -576 -576 0
v -528 -576 0
v -576 -624 0
v -624 -624 0
v -624 -576 0
v -576 -576 0
v -624 -624 0
v -672 -624 0
v -672 -576 0
v -624 -576 0
v -672 -624 0
v -720 -624 0
v -720 -576 0
v -672 -576 0
v -720 -624 0
v -768 -624 0
v -768 -576 0
v -720 -576 0

# Texture cooridinates (Count = 32)
vt 0.375 0.375
vt 0.4375 0.375
vt 0.4375 0.4375
vt 0.375 0.4375
vt 0.4375 0.5625
vt 0.5 0.5625
vt 0.5 0.625
vt 0.4375 0.625
vt 0.375 0.1875
vt 0.4375 0.1875
vt 0.4375 0.25
vt 0.375 0.25
vt 0.4375 0.5
vt 0.5 0.5
vt 0.375 0.5
vt 0.375 0.0625
vt 0.4375 0.0625
vt 0.4375 0.125
vt 0.375 0.125
vt 0.4375 0.9375
vt 0.5 0.9375
vt 0.5 1
vt 0.4375 1
vt 0.4375 0.75
vt 0.5 0.75
vt 0.5 0.8125
vt 0.4375 0.8125
vt 0.375 0.5625
vt 0.375 0.625
vt 0.4375 0.3125
vt 0.5 0.3125
vt 0.5 0.375

# Normal
vn 0 0 -1

# Mesh description
g Map_Entrance_mesh_0004

# Faces
f 1/1/1 2/2/1 3/3/1 4/4/1
f 5/5/1 6/6/1 7/7/1 8/8/1
f 9/9/1 10/10/1 11/11/1 12/12/1
f 13/13/1 14/14/1 15/6/1 16/5/1
f 17/13/1 18/14/1 19/6/1 20/5/1
f 21/4/1 22/3/1 23/13/1 24/15/1
f 25/16/1 26/17/1 27/18/1 28/19/1
f 29/20/1 30/21/1 31/22/1 32/23/1
f 33/24/1 34/25/1 35/26/1 36/27/1
f 37/28/1 38/5/1 39/8/1 40/29/1
f 41/28/1 42/5/1 43/8/1 44/29/1
f 45/28/1 46/5/1 47/8/1 48/29/1
f 49/28/1 50/5/1 51/8/1 52/29/1
f 53/13/1 54/14/1 55/6/1 56/5/1
f 57/13/1 58/14/1 59/6/1 60/5/1
f 61/4/1 62/3/1 63/13/1 64/15/1
f 65/4/1 66/3/1 67/13/1 68/15/1
f 69/30/1 70/31/1 71/32/1 72/2/1
f 73/1/1 74/2/1 75/3/1 76/4/1

