# Tiled2Unity generated file. Do not modify by hand.
# Wavefront file for 'Map_Intro_mesh_0003.obj'

# Vertices (Count = 200)
v 0 -240 0
v -48 -240 0
v -48 -192 0
v 0 -192 0
v -48 -240 0
v -96 -240 0
v -96 -192 0
v -48 -192 0
v -96 -240 0
v -144 -240 0
v -144 -192 0
v -96 -192 0
v -144 -240 0
v -192 -240 0
v -192 -192 0
v -144 -192 0
v -192 -240 0
v -240 -240 0
v -240 -192 0
v -192 -192 0
v -240 -240 0
v -288 -240 0
v -288 -192 0
v -240 -192 0
v -576 -240 0
v -624 -240 0
v -624 -192 0
v -576 -192 0
v -624 -240 0
v -672 -240 0
v -672 -192 0
v -624 -192 0
v -672 -240 0
v -720 -240 0
v -720 -192 0
v -672 -192 0
v 0 -288 0
v -48 -288 0
v -48 -240 0
v 0 -240 0
v -48 -288 0
v -96 -288 0
v -96 -240 0
v -48 -240 0
v -96 -288 0
v -144 -288 0
v -144 -240 0
v -96 -240 0
v -144 -288 0
v -192 -288 0
v -192 -240 0
v -144 -240 0
v -192 -288 0
v -240 -288 0
v -240 -240 0
v -192 -240 0
v -240 -288 0
v -288 -288 0
v -288 -240 0
v -240 -240 0
v -288 -288 0
v -336 -288 0
v -336 -240 0
v -288 -240 0
v -336 -288 0
v -384 -288 0
v -384 -240 0
v -336 -240 0
v -384 -288 0
v -432 -288 0
v -432 -240 0
v -384 -240 0
v -432 -288 0
v -480 -288 0
v -480 -240 0
v -432 -240 0
v -480 -288 0
v -528 -288 0
v -528 -240 0
v -480 -240 0
v -528 -288 0
v -576 -288 0
v -576 -240 0
v -528 -240 0
v -576 -288 0
v -624 -288 0
v -624 -240 0
v -576 -240 0
v -624 -288 0
v -672 -288 0
v -672 -240 0
v -624 -240 0
v -672 -288 0
v -720 -288 0
v -720 -240 0
v -672 -240 0
v -144 -528 0
v -192 -528 0
v -192 -480 0
v -144 -480 0
v -192 -528 0
v -240 -528 0
v -240 -480 0
v -192 -480 0
v -240 -528 0
v -288 -528 0
v -288 -480 0
v -240 -480 0
v -288 -528 0
v -336 -528 0
v -336 -480 0
v -288 -480 0
v -336 -528 0
v -384 -528 0
v -384 -480 0
v -336 -480 0
v -384 -528 0
v -432 -528 0
v -432 -480 0
v -384 -480 0
v -432 -528 0
v -480 -528 0
v -480 -480 0
v -432 -480 0
v -480 -528 0
v -528 -528 0
v -528 -480 0
v -480 -480 0
v -528 -528 0
v -576 -528 0
v -576 -480 0
v -528 -480 0
v -576 -528 0
v -624 -528 0
v -624 -480 0
v -576 -480 0
v -624 -528 0
v -672 -528 0
v -672 -480 0
v -624 -480 0
v -672 -528 0
v -720 -528 0
v -720 -480 0
v -672 -480 0
v -720 -528 0
v -768 -528 0
v -768 -480 0
v -720 -480 0
v -768 -528 0
v -816 -528 0
v -816 -480 0
v -768 -480 0
v -144 -576 0
v -192 -576 0
v -192 -528 0
v -144 -528 0
v -192 -576 0
v -240 -576 0
v -240 -528 0
v -192 -528 0
v -240 -576 0
v -288 -576 0
v -288 -528 0
v -240 -528 0
v -288 -576 0
v -336 -576 0
v -336 -528 0
v -288 -528 0
v -336 -576 0
v -384 -576 0
v -384 -528 0
v -336 -528 0
v -384 -576 0
v -432 -576 0
v -432 -528 0
v -384 -528 0
v -432 -576 0
v -480 -576 0
v -480 -528 0
v -432 -528 0
v -480 -576 0
v -528 -576 0
v -528 -528 0
v -480 -528 0
v -528 -576 0
v -576 -576 0
v -576 -528 0
v -528 -528 0
v -576 -576 0
v -624 -576 0
v -624 -528 0
v -576 -528 0
v -624 -576 0
v -672 -576 0
v -672 -528 0
v -624 -528 0
v -672 -576 0
v -720 -576 0
v -720 -528 0
v -672 -528 0

# Texture cooridinates (Count = 67)
vt 0.1875 0.4375
vt 0.25 0.4375
vt 0.25 0.5
vt 0.1875 0.5
vt 0.3125 0.4375
vt 0.3125 0.5
vt 0.375 0.4375
vt 0.375 0.5
vt 0 0.9375
vt 0.0625 0.9375
vt 0.0625 1
vt 0 1
vt 0.125 0.9375
vt 0.125 1
vt 0.1875 0.9375
vt 0.1875 1
vt 0.1875 0.6875
vt 0.25 0.6875
vt 0.25 0.75
vt 0.1875 0.75
vt 0.3125 0.6875
vt 0.3125 0.75
vt 0.375 0.6875
vt 0.375 0.75
vt 0.1875 0.375
vt 0.25 0.375
vt 0.3125 0.375
vt 0.375 0.375
vt 0 0.875
vt 0.0625 0.875
vt 0.125 0.875
vt 0.1875 0.875
vt 0.1875 0.1875
vt 0.25 0.1875
vt 0.25 0.25
vt 0.1875 0.25
vt 0.3125 0.1875
vt 0.3125 0.25
vt 0.375 0.1875
vt 0.375 0.25
vt 0 0.6875
vt 0.0625 0.6875
vt 0.0625 0.75
vt 0 0.75
vt 0.125 0.6875
vt 0.125 0.75
vt 0.1875 0.625
vt 0.25 0.625
vt 0.3125 0.625
vt 0.375 0.625
vt 0 0.1875
vt 0.0625 0.1875
vt 0.0625 0.25
vt 0 0.25
vt 0.125 0.1875
vt 0.125 0.25
vt 0.25 0.9375
vt 0.25 1
vt 0.3125 0.9375
vt 0.3125 1
vt 0 0.125
vt 0.0625 0.125
vt 0.125 0.125
vt 0.1875 0.125
vt 0.25 0.125
vt 0.3125 0.125
vt 0.375 0.125

# Normal
vn 0 0 -1

# Mesh description
g Map_Intro_mesh_0003

# Faces
f 1/1/1 2/2/1 3/3/1 4/4/1
f 5/2/1 6/5/1 7/6/1 8/3/1
f 9/5/1 10/7/1 11/8/1 12/6/1
f 13/9/1 14/10/1 15/11/1 16/12/1
f 17/10/1 18/13/1 19/14/1 20/11/1
f 21/13/1 22/15/1 23/16/1 24/14/1
f 25/17/1 26/18/1 27/19/1 28/20/1
f 29/18/1 30/21/1 31/22/1 32/19/1
f 33/21/1 34/23/1 35/24/1 36/22/1
f 37/25/1 38/26/1 39/2/1 40/1/1
f 41/26/1 42/27/1 43/5/1 44/2/1
f 45/27/1 46/28/1 47/7/1 48/5/1
f 49/29/1 50/30/1 51/10/1 52/9/1
f 53/30/1 54/31/1 55/13/1 56/10/1
f 57/31/1 58/32/1 59/15/1 60/13/1
f 61/33/1 62/34/1 63/35/1 64/36/1
f 65/34/1 66/37/1 67/38/1 68/35/1
f 69/37/1 70/39/1 71/40/1 72/38/1
f 73/41/1 74/42/1 75/43/1 76/44/1
f 77/42/1 78/45/1 79/46/1 80/43/1
f 81/45/1 82/17/1 83/20/1 84/46/1
f 85/47/1 86/48/1 87/18/1 88/17/1
f 89/48/1 90/49/1 91/21/1 92/18/1
f 93/49/1 94/50/1 95/23/1 96/21/1
f 97/51/1 98/52/1 99/53/1 100/54/1
f 101/52/1 102/55/1 103/56/1 104/53/1
f 105/55/1 106/33/1 107/36/1 108/56/1
f 109/33/1 110/34/1 111/35/1 112/36/1
f 113/34/1 114/37/1 115/38/1 116/35/1
f 117/37/1 118/39/1 119/40/1 120/38/1
f 121/1/1 122/2/1 123/3/1 124/4/1
f 125/2/1 126/5/1 127/6/1 128/3/1
f 129/5/1 130/7/1 131/8/1 132/6/1
f 133/1/1 134/2/1 135/3/1 136/4/1
f 137/2/1 138/5/1 139/6/1 140/3/1
f 141/5/1 142/7/1 143/8/1 144/6/1
f 145/15/1 146/57/1 147/58/1 148/16/1
f 149/57/1 150/59/1 151/60/1 152/58/1
f 153/61/1 154/62/1 155/52/1 156/51/1
f 157/62/1 158/63/1 159/55/1 160/52/1
f 161/63/1 162/64/1 163/33/1 164/55/1
f 165/64/1 166/65/1 167/34/1 168/33/1
f 169/65/1 170/66/1 171/37/1 172/34/1
f 173/66/1 174/67/1 175/39/1 176/37/1
f 177/25/1 178/26/1 179/2/1 180/1/1
f 181/26/1 182/27/1 183/5/1 184/2/1
f 185/27/1 186/28/1 187/7/1 188/5/1
f 189/25/1 190/26/1 191/2/1 192/1/1
f 193/26/1 194/27/1 195/5/1 196/2/1
f 197/27/1 198/28/1 199/7/1 200/5/1

