# Tiled2Unity generated file. Do not modify by hand.
# Wavefront file for 'Map_Intro_mesh_0001.obj'

# Vertices (Count = 1008)
v 0 -48 0
v -48 -48 0
v -48 0 0
v 0 0 0
v -48 -48 0
v -96 -48 0
v -96 0 0
v -48 0 0
v -96 -48 0
v -144 -48 0
v -144 0 0
v -96 0 0
v -144 -48 0
v -192 -48 0
v -192 0 0
v -144 0 0
v -192 -48 0
v -240 -48 0
v -240 0 0
v -192 0 0
v -240 -48 0
v -288 -48 0
v -288 0 0
v -240 0 0
v -288 -48 0
v -336 -48 0
v -336 0 0
v -288 0 0
v -336 -48 0
v -384 -48 0
v -384 0 0
v -336 0 0
v -384 -48 0
v -432 -48 0
v -432 0 0
v -384 0 0
v -432 -48 0
v -480 -48 0
v -480 0 0
v -432 0 0
v -480 -48 0
v -528 -48 0
v -528 0 0
v -480 0 0
v -528 -48 0
v -576 -48 0
v -576 0 0
v -528 0 0
v -576 -48 0
v -624 -48 0
v -624 0 0
v -576 0 0
v -624 -48 0
v -672 -48 0
v -672 0 0
v -624 0 0
v -672 -48 0
v -720 -48 0
v -720 0 0
v -672 0 0
v -720 -48 0
v -768 -48 0
v -768 0 0
v -720 0 0
v -768 -48 0
v -816 -48 0
v -816 0 0
v -768 0 0
v -816 -48 0
v -864 -48 0
v -864 0 0
v -816 0 0
v 0 -96 0
v -48 -96 0
v -48 -48 0
v 0 -48 0
v -48 -96 0
v -96 -96 0
v -96 -48 0
v -48 -48 0
v -96 -96 0
v -144 -96 0
v -144 -48 0
v -96 -48 0
v -144 -96 0
v -192 -96 0
v -192 -48 0
v -144 -48 0
v -192 -96 0
v -240 -96 0
v -240 -48 0
v -192 -48 0
v -240 -96 0
v -288 -96 0
v -288 -48 0
v -240 -48 0
v -288 -96 0
v -336 -96 0
v -336 -48 0
v -288 -48 0
v -336 -96 0
v -384 -96 0
v -384 -48 0
v -336 -48 0
v -384 -96 0
v -432 -96 0
v -432 -48 0
v -384 -48 0
v -432 -96 0
v -480 -96 0
v -480 -48 0
v -432 -48 0
v -480 -96 0
v -528 -96 0
v -528 -48 0
v -480 -48 0
v -528 -96 0
v -576 -96 0
v -576 -48 0
v -528 -48 0
v -576 -96 0
v -624 -96 0
v -624 -48 0
v -576 -48 0
v -624 -96 0
v -672 -96 0
v -672 -48 0
v -624 -48 0
v -672 -96 0
v -720 -96 0
v -720 -48 0
v -672 -48 0
v -720 -96 0
v -768 -96 0
v -768 -48 0
v -720 -48 0
v -768 -96 0
v -816 -96 0
v -816 -48 0
v -768 -48 0
v -816 -96 0
v -864 -96 0
v -864 -48 0
v -816 -48 0
v 0 -144 0
v -48 -144 0
v -48 -96 0
v 0 -96 0
v -48 -144 0
v -96 -144 0
v -96 -96 0
v -48 -96 0
v -96 -144 0
v -144 -144 0
v -144 -96 0
v -96 -96 0
v -144 -144 0
v -192 -144 0
v -192 -96 0
v -144 -96 0
v -192 -144 0
v -240 -144 0
v -240 -96 0
v -192 -96 0
v -240 -144 0
v -288 -144 0
v -288 -96 0
v -240 -96 0
v -288 -144 0
v -336 -144 0
v -336 -96 0
v -288 -96 0
v -336 -144 0
v -384 -144 0
v -384 -96 0
v -336 -96 0
v -384 -144 0
v -432 -144 0
v -432 -96 0
v -384 -96 0
v -432 -144 0
v -480 -144 0
v -480 -96 0
v -432 -96 0
v -480 -144 0
v -528 -144 0
v -528 -96 0
v -480 -96 0
v -528 -144 0
v -576 -144 0
v -576 -96 0
v -528 -96 0
v -576 -144 0
v -624 -144 0
v -624 -96 0
v -576 -96 0
v -624 -144 0
v -672 -144 0
v -672 -96 0
v -624 -96 0
v -672 -144 0
v -720 -144 0
v -720 -96 0
v -672 -96 0
v -720 -144 0
v -768 -144 0
v -768 -96 0
v -720 -96 0
v -768 -144 0
v -816 -144 0
v -816 -96 0
v -768 -96 0
v -816 -144 0
v -864 -144 0
v -864 -96 0
v -816 -96 0
v 0 -192 0
v -48 -192 0
v -48 -144 0
v 0 -144 0
v -48 -192 0
v -96 -192 0
v -96 -144 0
v -48 -144 0
v -96 -192 0
v -144 -192 0
v -144 -144 0
v -96 -144 0
v -144 -192 0
v -192 -192 0
v -192 -144 0
v -144 -144 0
v -192 -192 0
v -240 -192 0
v -240 -144 0
v -192 -144 0
v -240 -192 0
v -288 -192 0
v -288 -144 0
v -240 -144 0
v -288 -192 0
v -336 -192 0
v -336 -144 0
v -288 -144 0
v -336 -192 0
v -384 -192 0
v -384 -144 0
v -336 -144 0
v -384 -192 0
v -432 -192 0
v -432 -144 0
v -384 -144 0
v -432 -192 0
v -480 -192 0
v -480 -144 0
v -432 -144 0
v -480 -192 0
v -528 -192 0
v -528 -144 0
v -480 -144 0
v -528 -192 0
v -576 -192 0
v -576 -144 0
v -528 -144 0
v -576 -192 0
v -624 -192 0
v -624 -144 0
v -576 -144 0
v -624 -192 0
v -672 -192 0
v -672 -144 0
v -624 -144 0
v -672 -192 0
v -720 -192 0
v -720 -144 0
v -672 -144 0
v -720 -192 0
v -768 -192 0
v -768 -144 0
v -720 -144 0
v -768 -192 0
v -816 -192 0
v -816 -144 0
v -768 -144 0
v -816 -192 0
v -864 -192 0
v -864 -144 0
v -816 -144 0
v 0 -240 0
v -48 -240 0
v -48 -192 0
v 0 -192 0
v -48 -240 0
v -96 -240 0
v -96 -192 0
v -48 -192 0
v -96 -240 0
v -144 -240 0
v -144 -192 0
v -96 -192 0
v -144 -240 0
v -192 -240 0
v -192 -192 0
v -144 -192 0
v -192 -240 0
v -240 -240 0
v -240 -192 0
v -192 -192 0
v -240 -240 0
v -288 -240 0
v -288 -192 0
v -240 -192 0
v -288 -240 0
v -336 -240 0
v -336 -192 0
v -288 -192 0
v -336 -240 0
v -384 -240 0
v -384 -192 0
v -336 -192 0
v -384 -240 0
v -432 -240 0
v -432 -192 0
v -384 -192 0
v -432 -240 0
v -480 -240 0
v -480 -192 0
v -432 -192 0
v -480 -240 0
v -528 -240 0
v -528 -192 0
v -480 -192 0
v -528 -240 0
v -576 -240 0
v -576 -192 0
v -528 -192 0
v -576 -240 0
v -624 -240 0
v -624 -192 0
v -576 -192 0
v -624 -240 0
v -672 -240 0
v -672 -192 0
v -624 -192 0
v -672 -240 0
v -720 -240 0
v -720 -192 0
v -672 -192 0
v -720 -240 0
v -768 -240 0
v -768 -192 0
v -720 -192 0
v -768 -240 0
v -816 -240 0
v -816 -192 0
v -768 -192 0
v -816 -240 0
v -864 -240 0
v -864 -192 0
v -816 -192 0
v 0 -288 0
v -48 -288 0
v -48 -240 0
v 0 -240 0
v -48 -288 0
v -96 -288 0
v -96 -240 0
v -48 -240 0
v -96 -288 0
v -144 -288 0
v -144 -240 0
v -96 -240 0
v -144 -288 0
v -192 -288 0
v -192 -240 0
v -144 -240 0
v -192 -288 0
v -240 -288 0
v -240 -240 0
v -192 -240 0
v -240 -288 0
v -288 -288 0
v -288 -240 0
v -240 -240 0
v -288 -288 0
v -336 -288 0
v -336 -240 0
v -288 -240 0
v -336 -288 0
v -384 -288 0
v -384 -240 0
v -336 -240 0
v -384 -288 0
v -432 -288 0
v -432 -240 0
v -384 -240 0
v -432 -288 0
v -480 -288 0
v -480 -240 0
v -432 -240 0
v -480 -288 0
v -528 -288 0
v -528 -240 0
v -480 -240 0
v -528 -288 0
v -576 -288 0
v -576 -240 0
v -528 -240 0
v -576 -288 0
v -624 -288 0
v -624 -240 0
v -576 -240 0
v -624 -288 0
v -672 -288 0
v -672 -240 0
v -624 -240 0
v -672 -288 0
v -720 -288 0
v -720 -240 0
v -672 -240 0
v -720 -288 0
v -768 -288 0
v -768 -240 0
v -720 -240 0
v -768 -288 0
v -816 -288 0
v -816 -240 0
v -768 -240 0
v -816 -288 0
v -864 -288 0
v -864 -240 0
v -816 -240 0
v 0 -336 0
v -48 -336 0
v -48 -288 0
v 0 -288 0
v -48 -336 0
v -96 -336 0
v -96 -288 0
v -48 -288 0
v -96 -336 0
v -144 -336 0
v -144 -288 0
v -96 -288 0
v -144 -336 0
v -192 -336 0
v -192 -288 0
v -144 -288 0
v -192 -336 0
v -240 -336 0
v -240 -288 0
v -192 -288 0
v -240 -336 0
v -288 -336 0
v -288 -288 0
v -240 -288 0
v -288 -336 0
v -336 -336 0
v -336 -288 0
v -288 -288 0
v -336 -336 0
v -384 -336 0
v -384 -288 0
v -336 -288 0
v -384 -336 0
v -432 -336 0
v -432 -288 0
v -384 -288 0
v -432 -336 0
v -480 -336 0
v -480 -288 0
v -432 -288 0
v -480 -336 0
v -528 -336 0
v -528 -288 0
v -480 -288 0
v -528 -336 0
v -576 -336 0
v -576 -288 0
v -528 -288 0
v -576 -336 0
v -624 -336 0
v -624 -288 0
v -576 -288 0
v -624 -336 0
v -672 -336 0
v -672 -288 0
v -624 -288 0
v -672 -336 0
v -720 -336 0
v -720 -288 0
v -672 -288 0
v -720 -336 0
v -768 -336 0
v -768 -288 0
v -720 -288 0
v -768 -336 0
v -816 -336 0
v -816 -288 0
v -768 -288 0
v -816 -336 0
v -864 -336 0
v -864 -288 0
v -816 -288 0
v 0 -384 0
v -48 -384 0
v -48 -336 0
v 0 -336 0
v -48 -384 0
v -96 -384 0
v -96 -336 0
v -48 -336 0
v -96 -384 0
v -144 -384 0
v -144 -336 0
v -96 -336 0
v -144 -384 0
v -192 -384 0
v -192 -336 0
v -144 -336 0
v -192 -384 0
v -240 -384 0
v -240 -336 0
v -192 -336 0
v -240 -384 0
v -288 -384 0
v -288 -336 0
v -240 -336 0
v -288 -384 0
v -336 -384 0
v -336 -336 0
v -288 -336 0
v -336 -384 0
v -384 -384 0
v -384 -336 0
v -336 -336 0
v -384 -384 0
v -432 -384 0
v -432 -336 0
v -384 -336 0
v -432 -384 0
v -480 -384 0
v -480 -336 0
v -432 -336 0
v -480 -384 0
v -528 -384 0
v -528 -336 0
v -480 -336 0
v -528 -384 0
v -576 -384 0
v -576 -336 0
v -528 -336 0
v -576 -384 0
v -624 -384 0
v -624 -336 0
v -576 -336 0
v -624 -384 0
v -672 -384 0
v -672 -336 0
v -624 -336 0
v -672 -384 0
v -720 -384 0
v -720 -336 0
v -672 -336 0
v -720 -384 0
v -768 -384 0
v -768 -336 0
v -720 -336 0
v -768 -384 0
v -816 -384 0
v -816 -336 0
v -768 -336 0
v -816 -384 0
v -864 -384 0
v -864 -336 0
v -816 -336 0
v 0 -432 0
v -48 -432 0
v -48 -384 0
v 0 -384 0
v -48 -432 0
v -96 -432 0
v -96 -384 0
v -48 -384 0
v -96 -432 0
v -144 -432 0
v -144 -384 0
v -96 -384 0
v -144 -432 0
v -192 -432 0
v -192 -384 0
v -144 -384 0
v -192 -432 0
v -240 -432 0
v -240 -384 0
v -192 -384 0
v -240 -432 0
v -288 -432 0
v -288 -384 0
v -240 -384 0
v -288 -432 0
v -336 -432 0
v -336 -384 0
v -288 -384 0
v -336 -432 0
v -384 -432 0
v -384 -384 0
v -336 -384 0
v -384 -432 0
v -432 -432 0
v -432 -384 0
v -384 -384 0
v -432 -432 0
v -480 -432 0
v -480 -384 0
v -432 -384 0
v -480 -432 0
v -528 -432 0
v -528 -384 0
v -480 -384 0
v -528 -432 0
v -576 -432 0
v -576 -384 0
v -528 -384 0
v -576 -432 0
v -624 -432 0
v -624 -384 0
v -576 -384 0
v -624 -432 0
v -672 -432 0
v -672 -384 0
v -624 -384 0
v -672 -432 0
v -720 -432 0
v -720 -384 0
v -672 -384 0
v -720 -432 0
v -768 -432 0
v -768 -384 0
v -720 -384 0
v -768 -432 0
v -816 -432 0
v -816 -384 0
v -768 -384 0
v -816 -432 0
v -864 -432 0
v -864 -384 0
v -816 -384 0
v 0 -480 0
v -48 -480 0
v -48 -432 0
v 0 -432 0
v -48 -480 0
v -96 -480 0
v -96 -432 0
v -48 -432 0
v -96 -480 0
v -144 -480 0
v -144 -432 0
v -96 -432 0
v -144 -480 0
v -192 -480 0
v -192 -432 0
v -144 -432 0
v -192 -480 0
v -240 -480 0
v -240 -432 0
v -192 -432 0
v -240 -480 0
v -288 -480 0
v -288 -432 0
v -240 -432 0
v -288 -480 0
v -336 -480 0
v -336 -432 0
v -288 -432 0
v -336 -480 0
v -384 -480 0
v -384 -432 0
v -336 -432 0
v -384 -480 0
v -432 -480 0
v -432 -432 0
v -384 -432 0
v -432 -480 0
v -480 -480 0
v -480 -432 0
v -432 -432 0
v -480 -480 0
v -528 -480 0
v -528 -432 0
v -480 -432 0
v -528 -480 0
v -576 -480 0
v -576 -432 0
v -528 -432 0
v -576 -480 0
v -624 -480 0
v -624 -432 0
v -576 -432 0
v -624 -480 0
v -672 -480 0
v -672 -432 0
v -624 -432 0
v -672 -480 0
v -720 -480 0
v -720 -432 0
v -672 -432 0
v -720 -480 0
v -768 -480 0
v -768 -432 0
v -720 -432 0
v -768 -480 0
v -816 -480 0
v -816 -432 0
v -768 -432 0
v -816 -480 0
v -864 -480 0
v -864 -432 0
v -816 -432 0
v 0 -528 0
v -48 -528 0
v -48 -480 0
v 0 -480 0
v -48 -528 0
v -96 -528 0
v -96 -480 0
v -48 -480 0
v -96 -528 0
v -144 -528 0
v -144 -480 0
v -96 -480 0
v -144 -528 0
v -192 -528 0
v -192 -480 0
v -144 -480 0
v -192 -528 0
v -240 -528 0
v -240 -480 0
v -192 -480 0
v -240 -528 0
v -288 -528 0
v -288 -480 0
v -240 -480 0
v -288 -528 0
v -336 -528 0
v -336 -480 0
v -288 -480 0
v -336 -528 0
v -384 -528 0
v -384 -480 0
v -336 -480 0
v -384 -528 0
v -432 -528 0
v -432 -480 0
v -384 -480 0
v -432 -528 0
v -480 -528 0
v -480 -480 0
v -432 -480 0
v -480 -528 0
v -528 -528 0
v -528 -480 0
v -480 -480 0
v -528 -528 0
v -576 -528 0
v -576 -480 0
v -528 -480 0
v -576 -528 0
v -624 -528 0
v -624 -480 0
v -576 -480 0
v -624 -528 0
v -672 -528 0
v -672 -480 0
v -624 -480 0
v -672 -528 0
v -720 -528 0
v -720 -480 0
v -672 -480 0
v -720 -528 0
v -768 -528 0
v -768 -480 0
v -720 -480 0
v -768 -528 0
v -816 -528 0
v -816 -480 0
v -768 -480 0
v -816 -528 0
v -864 -528 0
v -864 -480 0
v -816 -480 0
v 0 -576 0
v -48 -576 0
v -48 -528 0
v 0 -528 0
v -48 -576 0
v -96 -576 0
v -96 -528 0
v -48 -528 0
v -96 -576 0
v -144 -576 0
v -144 -528 0
v -96 -528 0
v -144 -576 0
v -192 -576 0
v -192 -528 0
v -144 -528 0
v -192 -576 0
v -240 -576 0
v -240 -528 0
v -192 -528 0
v -240 -576 0
v -288 -576 0
v -288 -528 0
v -240 -528 0
v -288 -576 0
v -336 -576 0
v -336 -528 0
v -288 -528 0
v -336 -576 0
v -384 -576 0
v -384 -528 0
v -336 -528 0
v -384 -576 0
v -432 -576 0
v -432 -528 0
v -384 -528 0
v -432 -576 0
v -480 -576 0
v -480 -528 0
v -432 -528 0
v -480 -576 0
v -528 -576 0
v -528 -528 0
v -480 -528 0
v -528 -576 0
v -576 -576 0
v -576 -528 0
v -528 -528 0
v -576 -576 0
v -624 -576 0
v -624 -528 0
v -576 -528 0
v -624 -576 0
v -672 -576 0
v -672 -528 0
v -624 -528 0
v -672 -576 0
v -720 -576 0
v -720 -528 0
v -672 -528 0
v -720 -576 0
v -768 -576 0
v -768 -528 0
v -720 -528 0
v -768 -576 0
v -816 -576 0
v -816 -528 0
v -768 -528 0
v -816 -576 0
v -864 -576 0
v -864 -528 0
v -816 -528 0
v 0 -624 0
v -48 -624 0
v -48 -576 0
v 0 -576 0
v -48 -624 0
v -96 -624 0
v -96 -576 0
v -48 -576 0
v -96 -624 0
v -144 -624 0
v -144 -576 0
v -96 -576 0
v -144 -624 0
v -192 -624 0
v -192 -576 0
v -144 -576 0
v -192 -624 0
v -240 -624 0
v -240 -576 0
v -192 -576 0
v -240 -624 0
v -288 -624 0
v -288 -576 0
v -240 -576 0
v -288 -624 0
v -336 -624 0
v -336 -576 0
v -288 -576 0
v -336 -624 0
v -384 -624 0
v -384 -576 0
v -336 -576 0
v -384 -624 0
v -432 -624 0
v -432 -576 0
v -384 -576 0
v -432 -624 0
v -480 -624 0
v -480 -576 0
v -432 -576 0
v -480 -624 0
v -528 -624 0
v -528 -576 0
v -480 -576 0
v -528 -624 0
v -576 -624 0
v -576 -576 0
v -528 -576 0
v -576 -624 0
v -624 -624 0
v -624 -576 0
v -576 -576 0
v -624 -624 0
v -672 -624 0
v -672 -576 0
v -624 -576 0
v -672 -624 0
v -720 -624 0
v -720 -576 0
v -672 -576 0
v -720 -624 0
v -768 -624 0
v -768 -576 0
v -720 -576 0
v -768 -624 0
v -816 -624 0
v -816 -576 0
v -768 -576 0
v -816 -624 0
v -864 -624 0
v -864 -576 0
v -816 -576 0
v 0 -672 0
v -48 -672 0
v -48 -624 0
v 0 -624 0
v -48 -672 0
v -96 -672 0
v -96 -624 0
v -48 -624 0
v -96 -672 0
v -144 -672 0
v -144 -624 0
v -96 -624 0
v -144 -672 0
v -192 -672 0
v -192 -624 0
v -144 -624 0
v -192 -672 0
v -240 -672 0
v -240 -624 0
v -192 -624 0
v -240 -672 0
v -288 -672 0
v -288 -624 0
v -240 -624 0
v -288 -672 0
v -336 -672 0
v -336 -624 0
v -288 -624 0
v -336 -672 0
v -384 -672 0
v -384 -624 0
v -336 -624 0
v -384 -672 0
v -432 -672 0
v -432 -624 0
v -384 -624 0
v -432 -672 0
v -480 -672 0
v -480 -624 0
v -432 -624 0
v -480 -672 0
v -528 -672 0
v -528 -624 0
v -480 -624 0
v -528 -672 0
v -576 -672 0
v -576 -624 0
v -528 -624 0
v -576 -672 0
v -624 -672 0
v -624 -624 0
v -576 -624 0
v -624 -672 0
v -672 -672 0
v -672 -624 0
v -624 -624 0
v -672 -672 0
v -720 -672 0
v -720 -624 0
v -672 -624 0
v -720 -672 0
v -768 -672 0
v -768 -624 0
v -720 -624 0
v -768 -672 0
v -816 -672 0
v -816 -624 0
v -768 -624 0
v -816 -672 0
v -864 -672 0
v -864 -624 0
v -816 -624 0

# Texture cooridinates (Count = 34)
vt 0.25 0.5
vt 0.375 0.5
vt 0.375 0.5625
vt 0.25 0.5625
vt 0 0.625
vt 0.125 0.625
vt 0.125 0.6875
vt 0 0.6875
vt 0.5 0.5
vt 0.5 0.5625
vt 0 0.9375
vt 0.125 0.9375
vt 0.125 1
vt 0 1
vt 0.25 0.9375
vt 0.25 1
vt 0.375 0.625
vt 0.25 0.625
vt 0.125 0.5
vt 0.125 0.5625
vt 0.25 0.6875
vt 0.125 0.75
vt 0.25 0.75
vt 0.25 0.8125
vt 0.125 0.8125
vt 0.125 0.875
vt 0.25 0.875
vt 0 0.5
vt 0 0.5625
vt 0 0.875
vt 0 0.8125
vt 0.375 0.875
vt 0.375 0.9375
vt 0 0.75

# Normal
vn 0 0 -1

# Mesh description
g Map_Intro_mesh_0001

# Faces
f 1/1/1 2/2/1 3/3/1 4/4/1
f 5/5/1 6/6/1 7/7/1 8/8/1
f 9/5/1 10/6/1 11/7/1 12/8/1
f 13/2/1 14/9/1 15/10/1 16/3/1
f 17/11/1 18/12/1 19/13/1 20/14/1
f 21/11/1 22/12/1 23/13/1 24/14/1
f 25/11/1 26/12/1 27/13/1 28/14/1
f 29/11/1 30/12/1 31/13/1 32/14/1
f 33/11/1 34/12/1 35/13/1 36/14/1
f 37/11/1 38/12/1 39/13/1 40/14/1
f 41/11/1 42/12/1 43/13/1 44/14/1
f 45/11/1 46/12/1 47/13/1 48/14/1
f 49/11/1 50/12/1 51/13/1 52/14/1
f 53/11/1 54/12/1 55/13/1 56/14/1
f 57/11/1 58/12/1 59/13/1 60/14/1
f 61/11/1 62/12/1 63/13/1 64/14/1
f 65/11/1 66/12/1 67/13/1 68/14/1
f 69/12/1 70/15/1 71/16/1 72/13/1
f 73/1/1 74/2/1 75/3/1 76/4/1
f 77/5/1 78/6/1 79/7/1 80/8/1
f 81/5/1 82/6/1 83/7/1 84/8/1
f 85/2/1 86/9/1 87/10/1 88/3/1
f 89/11/1 90/12/1 91/13/1 92/14/1
f 93/11/1 94/12/1 95/13/1 96/14/1
f 97/11/1 98/12/1 99/13/1 100/14/1
f 101/11/1 102/12/1 103/13/1 104/14/1
f 105/11/1 106/12/1 107/13/1 108/14/1
f 109/11/1 110/12/1 111/13/1 112/14/1
f 113/11/1 114/12/1 115/13/1 116/14/1
f 117/11/1 118/12/1 119/13/1 120/14/1
f 121/11/1 122/12/1 123/13/1 124/14/1
f 125/11/1 126/12/1 127/13/1 128/14/1
f 129/11/1 130/12/1 131/13/1 132/14/1
f 133/11/1 134/12/1 135/13/1 136/14/1
f 137/11/1 138/12/1 139/13/1 140/14/1
f 141/12/1 142/15/1 143/16/1 144/13/1
f 145/1/1 146/2/1 147/3/1 148/4/1
f 149/5/1 150/6/1 151/7/1 152/8/1
f 153/5/1 154/6/1 155/7/1 156/8/1
f 157/4/1 158/3/1 159/17/1 160/18/1
f 161/19/1 162/1/1 163/4/1 164/20/1
f 165/19/1 166/1/1 167/4/1 168/20/1
f 169/19/1 170/1/1 171/4/1 172/20/1
f 173/19/1 174/1/1 175/4/1 176/20/1
f 177/19/1 178/1/1 179/4/1 180/20/1
f 181/19/1 182/1/1 183/4/1 184/20/1
f 185/19/1 186/1/1 187/4/1 188/20/1
f 189/19/1 190/1/1 191/4/1 192/20/1
f 193/19/1 194/1/1 195/4/1 196/20/1
f 197/19/1 198/1/1 199/4/1 200/20/1
f 201/19/1 202/1/1 203/4/1 204/20/1
f 205/19/1 206/1/1 207/4/1 208/20/1
f 209/11/1 210/12/1 211/13/1 212/14/1
f 213/11/1 214/12/1 215/13/1 216/14/1
f 217/1/1 218/2/1 219/3/1 220/4/1
f 221/5/1 222/6/1 223/7/1 224/8/1
f 225/5/1 226/6/1 227/7/1 228/8/1
f 229/5/1 230/6/1 231/7/1 232/8/1
f 233/5/1 234/6/1 235/7/1 236/8/1
f 237/6/1 238/18/1 239/21/1 240/7/1
f 241/5/1 242/6/1 243/7/1 244/8/1
f 245/6/1 246/18/1 247/21/1 248/7/1
f 249/6/1 250/18/1 251/21/1 252/7/1
f 253/6/1 254/18/1 255/21/1 256/7/1
f 257/5/1 258/6/1 259/7/1 260/8/1
f 261/5/1 262/6/1 263/7/1 264/8/1
f 265/5/1 266/6/1 267/7/1 268/8/1
f 269/6/1 270/18/1 271/21/1 272/7/1
f 273/5/1 274/6/1 275/7/1 276/8/1
f 277/5/1 278/6/1 279/7/1 280/8/1
f 281/4/1 282/3/1 283/17/1 284/18/1
f 285/11/1 286/12/1 287/13/1 288/14/1
f 289/1/1 290/2/1 291/3/1 292/4/1
f 293/5/1 294/6/1 295/7/1 296/8/1
f 297/5/1 298/6/1 299/7/1 300/8/1
f 301/5/1 302/6/1 303/7/1 304/8/1
f 305/6/1 306/18/1 307/21/1 308/7/1
f 309/6/1 310/18/1 311/21/1 312/7/1
f 313/6/1 314/18/1 315/21/1 316/7/1
f 317/6/1 318/18/1 319/21/1 320/7/1
f 321/5/1 322/6/1 323/7/1 324/8/1
f 325/5/1 326/6/1 327/7/1 328/8/1
f 329/5/1 330/6/1 331/7/1 332/8/1
f 333/6/1 334/18/1 335/21/1 336/7/1
f 337/5/1 338/6/1 339/7/1 340/8/1
f 341/5/1 342/6/1 343/7/1 344/8/1
f 345/6/1 346/18/1 347/21/1 348/7/1
f 349/5/1 350/6/1 351/7/1 352/8/1
f 353/5/1 354/6/1 355/7/1 356/8/1
f 357/2/1 358/9/1 359/10/1 360/3/1
f 361/1/1 362/2/1 363/3/1 364/4/1
f 365/5/1 366/6/1 367/7/1 368/8/1
f 369/5/1 370/6/1 371/7/1 372/8/1
f 373/22/1 374/23/1 375/24/1 376/25/1
f 377/22/1 378/23/1 379/24/1 380/25/1
f 381/22/1 382/23/1 383/24/1 384/25/1
f 385/22/1 386/23/1 387/24/1 388/25/1
f 389/22/1 390/23/1 391/24/1 392/25/1
f 393/22/1 394/23/1 395/24/1 396/25/1
f 397/22/1 398/23/1 399/24/1 400/25/1
f 401/22/1 402/23/1 403/24/1 404/25/1
f 405/22/1 406/23/1 407/24/1 408/25/1
f 409/22/1 410/23/1 411/24/1 412/25/1
f 413/22/1 414/23/1 415/24/1 416/25/1
f 417/5/1 418/6/1 419/7/1 420/8/1
f 421/5/1 422/6/1 423/7/1 424/8/1
f 425/5/1 426/6/1 427/7/1 428/8/1
f 429/2/1 430/9/1 431/10/1 432/3/1
f 433/26/1 434/27/1 435/15/1 436/12/1
f 437/28/1 438/19/1 439/20/1 440/29/1
f 441/28/1 442/19/1 443/20/1 444/29/1
f 445/30/1 446/26/1 447/12/1 448/11/1
f 449/26/1 450/27/1 451/15/1 452/12/1
f 453/26/1 454/27/1 455/15/1 456/12/1
f 457/26/1 458/27/1 459/15/1 460/12/1
f 461/30/1 462/26/1 463/12/1 464/11/1
f 465/26/1 466/27/1 467/15/1 468/12/1
f 469/30/1 470/26/1 471/12/1 472/11/1
f 473/26/1 474/27/1 475/15/1 476/12/1
f 477/30/1 478/26/1 479/12/1 480/11/1
f 481/30/1 482/26/1 483/12/1 484/11/1
f 485/26/1 486/27/1 487/15/1 488/12/1
f 489/1/1 490/2/1 491/3/1 492/4/1
f 493/5/1 494/6/1 495/7/1 496/8/1
f 497/5/1 498/6/1 499/7/1 500/8/1
f 501/2/1 502/9/1 503/10/1 504/3/1
f 505/11/1 506/12/1 507/13/1 508/14/1
f 509/11/1 510/12/1 511/13/1 512/14/1
f 513/26/1 514/27/1 515/15/1 516/12/1
f 517/26/1 518/27/1 519/15/1 520/12/1
f 521/26/1 522/27/1 523/15/1 524/12/1
f 525/11/1 526/12/1 527/13/1 528/14/1
f 529/11/1 530/12/1 531/13/1 532/14/1
f 533/11/1 534/12/1 535/13/1 536/14/1
f 537/26/1 538/27/1 539/15/1 540/12/1
f 541/26/1 542/27/1 543/15/1 544/12/1
f 545/26/1 546/27/1 547/15/1 548/12/1
f 549/26/1 550/27/1 551/15/1 552/12/1
f 553/11/1 554/12/1 555/13/1 556/14/1
f 557/12/1 558/15/1 559/16/1 560/13/1
f 561/1/1 562/2/1 563/3/1 564/4/1
f 565/5/1 566/6/1 567/7/1 568/8/1
f 569/5/1 570/6/1 571/7/1 572/8/1
f 573/2/1 574/9/1 575/10/1 576/3/1
f 577/30/1 578/26/1 579/12/1 580/11/1
f 581/26/1 582/27/1 583/15/1 584/12/1
f 585/30/1 586/26/1 587/12/1 588/11/1
f 589/30/1 590/26/1 591/12/1 592/11/1
f 593/30/1 594/26/1 595/12/1 596/11/1
f 597/30/1 598/26/1 599/12/1 600/11/1
f 601/30/1 602/26/1 603/12/1 604/11/1
f 605/30/1 606/26/1 607/12/1 608/11/1
f 609/30/1 610/26/1 611/12/1 612/11/1
f 613/30/1 614/26/1 615/12/1 616/11/1
f 617/30/1 618/26/1 619/12/1 620/11/1
f 621/26/1 622/27/1 623/15/1 624/12/1
f 625/30/1 626/26/1 627/12/1 628/11/1
f 629/26/1 630/27/1 631/15/1 632/12/1
f 633/1/1 634/2/1 635/3/1 636/4/1
f 637/5/1 638/6/1 639/7/1 640/8/1
f 641/5/1 642/6/1 643/7/1 644/8/1
f 645/2/1 646/9/1 647/10/1 648/3/1
f 649/31/1 650/25/1 651/26/1 652/30/1
f 653/19/1 654/1/1 655/4/1 656/20/1
f 657/27/1 658/32/1 659/33/1 660/15/1
f 661/34/1 662/22/1 663/25/1 664/31/1
f 665/34/1 666/22/1 667/25/1 668/31/1
f 669/34/1 670/22/1 671/25/1 672/31/1
f 673/34/1 674/22/1 675/25/1 676/31/1
f 677/34/1 678/22/1 679/25/1 680/31/1
f 681/34/1 682/22/1 683/25/1 684/31/1
f 685/34/1 686/22/1 687/25/1 688/31/1
f 689/34/1 690/22/1 691/25/1 692/31/1
f 693/34/1 694/22/1 695/25/1 696/31/1
f 697/34/1 698/22/1 699/25/1 700/31/1
f 701/34/1 702/22/1 703/25/1 704/31/1
f 705/5/1 706/6/1 707/7/1 708/8/1
f 709/5/1 710/6/1 711/7/1 712/8/1
f 713/5/1 714/6/1 715/7/1 716/8/1
f 717/2/1 718/9/1 719/10/1 720/3/1
f 721/19/1 722/1/1 723/4/1 724/20/1
f 725/5/1 726/6/1 727/7/1 728/8/1
f 729/5/1 730/6/1 731/7/1 732/8/1
f 733/5/1 734/6/1 735/7/1 736/8/1
f 737/5/1 738/6/1 739/7/1 740/8/1
f 741/5/1 742/6/1 743/7/1 744/8/1
f 745/5/1 746/6/1 747/7/1 748/8/1
f 749/5/1 750/6/1 751/7/1 752/8/1
f 753/5/1 754/6/1 755/7/1 756/8/1
f 757/5/1 758/6/1 759/7/1 760/8/1
f 761/5/1 762/6/1 763/7/1 764/8/1
f 765/5/1 766/6/1 767/7/1 768/8/1
f 769/5/1 770/6/1 771/7/1 772/8/1
f 773/5/1 774/6/1 775/7/1 776/8/1
f 777/5/1 778/6/1 779/7/1 780/8/1
f 781/8/1 782/7/1 783/22/1 784/34/1
f 785/5/1 786/6/1 787/7/1 788/8/1
f 789/2/1 790/9/1 791/10/1 792/3/1
f 793/5/1 794/6/1 795/7/1 796/8/1
f 797/5/1 798/6/1 799/7/1 800/8/1
f 801/8/1 802/7/1 803/22/1 804/34/1
f 805/8/1 806/7/1 807/22/1 808/34/1
f 809/8/1 810/7/1 811/22/1 812/34/1
f 813/8/1 814/7/1 815/22/1 816/34/1
f 817/8/1 818/7/1 819/22/1 820/34/1
f 821/8/1 822/7/1 823/22/1 824/34/1
f 825/8/1 826/7/1 827/22/1 828/34/1
f 829/8/1 830/7/1 831/22/1 832/34/1
f 833/8/1 834/7/1 835/22/1 836/34/1
f 837/8/1 838/7/1 839/22/1 840/34/1
f 841/8/1 842/7/1 843/22/1 844/34/1
f 845/8/1 846/7/1 847/22/1 848/34/1
f 849/8/1 850/7/1 851/22/1 852/34/1
f 853/28/1 854/19/1 855/20/1 856/29/1
f 857/26/1 858/27/1 859/15/1 860/12/1
f 861/26/1 862/27/1 863/15/1 864/12/1
f 865/28/1 866/19/1 867/20/1 868/29/1
f 869/28/1 870/19/1 871/20/1 872/29/1
f 873/28/1 874/19/1 875/20/1 876/29/1
f 877/28/1 878/19/1 879/20/1 880/29/1
f 881/28/1 882/19/1 883/20/1 884/29/1
f 885/28/1 886/19/1 887/20/1 888/29/1
f 889/28/1 890/19/1 891/20/1 892/29/1
f 893/28/1 894/19/1 895/20/1 896/29/1
f 897/28/1 898/19/1 899/20/1 900/29/1
f 901/28/1 902/19/1 903/20/1 904/29/1
f 905/28/1 906/19/1 907/20/1 908/29/1
f 909/28/1 910/19/1 911/20/1 912/29/1
f 913/28/1 914/19/1 915/20/1 916/29/1
f 917/28/1 918/19/1 919/20/1 920/29/1
f 921/28/1 922/19/1 923/20/1 924/29/1
f 925/30/1 926/26/1 927/12/1 928/11/1
f 929/26/1 930/27/1 931/15/1 932/12/1
f 933/26/1 934/27/1 935/15/1 936/12/1
f 937/26/1 938/27/1 939/15/1 940/12/1
f 941/26/1 942/27/1 943/15/1 944/12/1
f 945/26/1 946/27/1 947/15/1 948/12/1
f 949/26/1 950/27/1 951/15/1 952/12/1
f 953/26/1 954/27/1 955/15/1 956/12/1
f 957/26/1 958/27/1 959/15/1 960/12/1
f 961/26/1 962/27/1 963/15/1 964/12/1
f 965/26/1 966/27/1 967/15/1 968/12/1
f 969/26/1 970/27/1 971/15/1 972/12/1
f 973/26/1 974/27/1 975/15/1 976/12/1
f 977/26/1 978/27/1 979/15/1 980/12/1
f 981/26/1 982/27/1 983/15/1 984/12/1
f 985/26/1 986/27/1 987/15/1 988/12/1
f 989/26/1 990/27/1 991/15/1 992/12/1
f 993/26/1 994/27/1 995/15/1 996/12/1
f 997/26/1 998/27/1 999/15/1 1000/12/1
f 1001/26/1 1002/27/1 1003/15/1 1004/12/1
f 1005/26/1 1006/27/1 1007/15/1 1008/12/1

